<svg width="32" height="32" viewBox="0 0 58 58" fill="none" xmlns="http://www.w3.org/2000/svg">
  <rect width="58" height="58" rx="18" fill="#534AB7"/>
  <ellipse cx="29" cy="31" rx="15" ry="12" fill="white"/>
  <ellipse cx="22" cy="28" rx="3" ry="3.5" fill="#534AB7"/>
  <ellipse cx="36" cy="28" rx="3" ry="3.5" fill="#534AB7"/>
  <ellipse cx="22.8" cy="27.2" rx="1.2" ry="1.4" fill="white"/>
  <ellipse cx="36.8" cy="27.2" rx="1.2" ry="1.4" fill="white"/>
  <path d="M23 34.5 Q29 38.5 35 34.5" stroke="#534AB7" stroke-width="1.8" stroke-linecap="round" fill="none"/>
  <path d="M29 19 Q31 14 36 15 Q34 18 35 20" fill="#AFA9EC"/>
  <circle cx="36" cy="14" r="3" fill="#CECBF6"/>
  <path d="M14 23 Q10 19 12 14 Q16 16 15 20" fill="#AFA9EC"/>
  <circle cx="11" cy="13" r="2.5" fill="#CECBF6"/>
  <path d="M24 43 L22 49" stroke="#534AB7" stroke-width="1.5" stroke-linecap="round"/>
  <path d="M34 43 L36 49" stroke="#534AB7" stroke-width="1.5" stroke-linecap="round"/>
  <ellipse cx="22" cy="49.5" rx="3" ry="1.5" fill="#AFA9EC"/>
  <ellipse cx="36" cy="49.5" rx="3" ry="1.5" fill="#AFA9EC"/>
</svg>
